<svg width="24" height="24" viewBox="0 0 24 24" fill="none" xmlns="http://www.w3.org/2000/svg">
<path d="M14.25 17.25V23.25H8.25" stroke="#17252F" stroke-width="1.5" stroke-linecap="round" stroke-linejoin="round"/>
<path d="M11.25 20.25V23.25" stroke="#17252F" stroke-width="1.5" stroke-linecap="round" stroke-linejoin="round"/>
<path d="M8.25 17.85V23.25H2.25V18.75" stroke="#17252F" stroke-width="1.5" stroke-linecap="round" stroke-linejoin="round"/>
<path fill-rule="evenodd" clip-rule="evenodd" d="M7.5 18.75L11.25 14.25H4.5L0.75 18.75H7.5V18.75Z" stroke="#17252F" stroke-width="1.5" stroke-linecap="round" stroke-linejoin="round"/>
<path d="M15.75 18.75L11.25 14.25" stroke="#17252F" stroke-width="1.5" stroke-linecap="round" stroke-linejoin="round"/>
<path fill-rule="evenodd" clip-rule="evenodd" d="M11.967 6.75L17.25 0.75H10.5L5.21698 6.75H11.967V6.75Z" stroke="#17252F" stroke-width="1.5" stroke-linecap="round" stroke-linejoin="round"/>
<path d="M23.25 6.75L17.25 0.75" stroke="#17252F" stroke-width="1.5" stroke-linecap="round" stroke-linejoin="round"/>
<path d="M12.75 5.861V11.25" stroke="#17252F" stroke-width="1.5" stroke-linecap="round" stroke-linejoin="round"/>
<path d="M21.75 5.25V18.75H18.75" stroke="#17252F" stroke-width="1.5" stroke-linecap="round" stroke-linejoin="round"/>
<path d="M6.75 11.25V6.75" stroke="#17252F" stroke-width="1.5" stroke-linecap="round" stroke-linejoin="round"/>
<path d="M15.75 7.5V8.25" stroke="#17252F" stroke-width="1.5" stroke-linecap="round" stroke-linejoin="round"/>
<path d="M18.75 7.5V8.25" stroke="#17252F" stroke-width="1.5" stroke-linecap="round" stroke-linejoin="round"/>
<path d="M15.75 11.25V12" stroke="#17252F" stroke-width="1.5" stroke-linecap="round" stroke-linejoin="round"/>
<path d="M18.75 11.25V12" stroke="#17252F" stroke-width="1.5" stroke-linecap="round" stroke-linejoin="round"/>
<path d="M18.75 15V15.75" stroke="#17252F" stroke-width="1.5" stroke-linecap="round" stroke-linejoin="round"/>
</svg>
