<svg width="56" height="56" viewBox="0 0 56 56" fill="none" xmlns="http://www.w3.org/2000/svg">
<path d="M40.25 45.8197C43.0793 43.53 45.1995 40.4833 46.3633 37.0347" stroke="#095C37" stroke-width="3" stroke-linecap="round" stroke-linejoin="round"/>
<path d="M17.5 23.625C17.9832 23.625 18.375 24.0168 18.375 24.5C18.375 24.9832 17.9832 25.375 17.5 25.375C17.0168 25.375 16.625 24.9832 16.625 24.5C16.625 24.0168 17.0168 23.625 17.5 23.625" stroke="#095C37" stroke-width="3" stroke-linecap="round" stroke-linejoin="round"/>
<path d="M43.75 8.75H39.0063C37.5068 8.75105 36.2186 9.81492 35.934 11.2871C35.6495 12.7593 36.4485 14.2266 37.8396 14.7863L42.6556 16.7137C44.0467 17.2734 44.8457 18.7407 44.5612 20.2129C44.2767 21.6851 42.9884 22.749 41.489 22.75H36.75" stroke="#095C37" stroke-width="3" stroke-linecap="round" stroke-linejoin="round"/>
<path d="M40.25 8.75V7" stroke="#095C37" stroke-width="3" stroke-linecap="round" stroke-linejoin="round"/>
<path d="M40.25 24.5V22.75" stroke="#095C37" stroke-width="3" stroke-linecap="round" stroke-linejoin="round"/>
<path fill-rule="evenodd" clip-rule="evenodd" d="M40.25 29.75C47.982 29.75 54.25 23.482 54.25 15.75C54.25 8.01801 47.982 1.75 40.25 1.75C32.518 1.75 26.25 8.01801 26.25 15.75C26.25 23.482 32.518 29.75 40.25 29.75Z" stroke="#095C37" stroke-width="3" stroke-linecap="round" stroke-linejoin="round"/>
<path d="M21.0863 12.9059L16.4593 9.04888C15.9675 8.6396 15.2915 8.53139 14.6965 8.76668C14.1014 9.00197 13.6823 9.54324 13.6033 10.1782L12.7727 16.8142C9.61884 19.1938 7.2768 22.4893 6.06667 26.2502H1.75V40.2502H7.56C11.4412 46.864 18.5825 50.876 26.25 50.7502C35.4002 50.9912 43.6318 45.2199 46.5243 36.5355" stroke="#095C37" stroke-width="3" stroke-linecap="round" stroke-linejoin="round"/>
<path d="M14.0257 47.1426L12.25 54.2499" stroke="#095C37" stroke-width="3" stroke-linecap="round" stroke-linejoin="round"/>
<path d="M38.4767 47.1543L40.25 54.25" stroke="#095C37" stroke-width="3" stroke-linecap="round" stroke-linejoin="round"/>
</svg>
