<svg width="24" height="24" viewBox="0 0 24 24" fill="none" xmlns="http://www.w3.org/2000/svg">
<path d="M9.63301 18.876C9.06217 18.3008 8.43045 17.7895 7.74901 17.351C6.63 16.6426 5.25144 16.476 3.99586 16.8973C2.74028 17.3186 1.74126 18.283 1.27601 19.523C0.888706 20.7261 0.710789 21.9867 0.750009 23.25H23.25C23.25 19.5 22.486 15.681 18.866 14.466C17.1543 13.8923 15.2753 14.1189 13.749 15.083C11.5146 16.6142 9.61033 18.5783 8.14901 20.859" stroke="#17252F" stroke-width="1.5" stroke-linecap="round" stroke-linejoin="round"/>
<path d="M0.75 5.262L5.262 0.75" stroke="#17252F" stroke-width="1.5" stroke-linecap="round" stroke-linejoin="round"/>
<path d="M3.00598 3.006L9.77498 9.775" stroke="#17252F" stroke-width="1.5" stroke-linecap="round" stroke-linejoin="round"/>
<path d="M10.073 14.585L8.64703 13.159C8.02667 12.5349 8.02667 11.5271 8.64703 10.903L10.9 8.647C11.5241 8.02664 12.532 8.02664 13.156 8.647L14.582 10.073C14.7572 10.248 14.8893 10.4613 14.968 10.696L15.436 12.102" stroke="#17252F" stroke-width="1.5" stroke-linecap="round" stroke-linejoin="round"/>
</svg>
