<svg width="57" height="56" viewBox="0 0 57 56" fill="none" xmlns="http://www.w3.org/2000/svg">
<rect x="19.0967" y="1.75" width="17.5" height="28" stroke="#17252F" stroke-width="3" stroke-linecap="round" stroke-linejoin="round"/>
<path d="M36.5967 1.75L49.1033 14.2567C49.3536 14.5072 49.4281 14.8838 49.2922 15.2108C49.1563 15.5378 48.8368 15.7506 48.4827 15.75H36.5967" stroke="#17252F" stroke-width="3" stroke-linecap="round" stroke-linejoin="round"/>
<path d="M36.5967 15.75L49.1033 28.2567C49.3536 28.5072 49.4281 28.8838 49.2922 29.2108C49.1563 29.5378 48.8368 29.7506 48.4827 29.75H36.5967" stroke="#17252F" stroke-width="3" stroke-linecap="round" stroke-linejoin="round"/>
<path d="M19.0967 15.75H7.20836C6.8547 15.7497 6.53599 15.5365 6.40069 15.2097C6.26539 14.883 6.34011 14.5069 6.59003 14.2567L19.0967 1.75" stroke="#17252F" stroke-width="3" stroke-linecap="round" stroke-linejoin="round"/>
<path d="M19.0967 15.75L6.59003 28.2567C6.34011 28.5069 6.26539 28.883 6.40069 29.2097C6.53599 29.5365 6.8547 29.7497 7.20836 29.75H19.1084" stroke="#17252F" stroke-width="3" stroke-linecap="round" stroke-linejoin="round"/>
<path d="M36.5967 29.75L19.0967 1.75" stroke="#17252F" stroke-width="3" stroke-linecap="round" stroke-linejoin="round"/>
<path d="M19.0967 29.75L36.5967 1.75" stroke="#17252F" stroke-width="3" stroke-linecap="round" stroke-linejoin="round"/>
<path d="M8.59668 54.25L19.0967 29.75" stroke="#17252F" stroke-width="3" stroke-linecap="round" stroke-linejoin="round"/>
<path d="M47.0967 54.25L36.5967 29.75" stroke="#17252F" stroke-width="3" stroke-linecap="round" stroke-linejoin="round"/>
<path d="M17.552 33.3525L43.7553 46.4542" stroke="black" stroke-width="3" stroke-linecap="round" stroke-linejoin="round"/>
<path d="M38.139 33.3525L11.9357 46.4542" stroke="black" stroke-width="3" stroke-linecap="round" stroke-linejoin="round"/>
</svg>
