<svg width="25" height="25" viewBox="0 0 25 25" fill="none" xmlns="http://www.w3.org/2000/svg">
<path d="M4.49462 0C2.0048 0 0 2.0048 0 4.49461V20.1207C0 22.6106 2.0048 24.6154 4.49462 24.6154H12.9639V14.9923H10.4192V11.5277H12.9639V8.56769C12.9639 6.24215 14.4673 4.10692 17.9308 4.10692C19.3331 4.10692 20.37 4.24154 20.37 4.24154L20.2885 7.47693C20.2885 7.47693 19.2309 7.46694 18.0769 7.46694C16.828 7.46694 16.6277 8.0424 16.6277 8.99772V11.5277H20.3877L20.2239 14.9923H16.6277V24.6154H20.1208C22.6106 24.6154 24.6154 22.6106 24.6154 20.1208V4.49464C24.6154 2.00482 22.6106 2.46153e-05 20.1208 2.46153e-05H4.4946L4.49462 0Z" fill="white"/>
</svg>
