<svg width="32" height="32" viewBox="0 0 32 32" fill="none" xmlns="http://www.w3.org/2000/svg">
<path fill-rule="evenodd" clip-rule="evenodd" d="M18.172 31H3C1.89543 31 1 30.1046 1 29V3C1 1.89543 1.89543 1 3 1H29C30.1046 1 31 1.89543 31 3V18.172C30.9999 18.7021 30.7894 19.2104 30.4147 19.5853L19.5853 30.4147C19.2104 30.7894 18.7021 30.9999 18.172 31Z" stroke="white" stroke-width="1.5" stroke-linecap="round" stroke-linejoin="round"/>
<path d="M19 30.82V21C19 19.8954 19.8954 19 21 19H30.82" stroke="white" stroke-width="1.5" stroke-linecap="round" stroke-linejoin="round"/>
<path d="M20 7L12.9213 16.4373C12.583 16.8884 12.0701 17.1757 11.5087 17.2285C10.9474 17.2813 10.3898 17.0947 9.97333 16.7147L7 14" stroke="white" stroke-width="1.5" stroke-linecap="round" stroke-linejoin="round"/>
</svg>
