<svg width="26" height="25" viewBox="0 0 26 25" fill="none" xmlns="http://www.w3.org/2000/svg">
<path fill-rule="evenodd" clip-rule="evenodd" d="M7.92589 0.0738461C9.23834 0.0134266 9.6568 0 13 0C16.3432 0 16.7617 0.0145454 18.073 0.0738461C19.3843 0.133147 20.2795 0.342378 21.0627 0.645594C21.8828 0.955525 22.6269 1.44 23.2423 2.06657C23.8688 2.68084 24.3522 3.42378 24.661 4.24504C24.9653 5.02825 25.1734 5.92336 25.2339 7.23245C25.2943 8.54713 25.3077 8.96559 25.3077 12.3077C25.3077 15.6509 25.2932 16.0694 25.2339 17.3818C25.1746 18.6909 24.9653 19.586 24.661 20.3692C24.3522 21.1906 23.868 21.9348 23.2423 22.5499C22.6269 23.1765 21.8828 23.6599 21.0627 23.9687C20.2795 24.273 19.3843 24.4811 18.0753 24.5415C16.7617 24.602 16.3432 24.6154 13 24.6154C9.6568 24.6154 9.23834 24.6008 7.92589 24.5415C6.6168 24.4822 5.72169 24.273 4.93848 23.9687C4.11713 23.6598 3.37296 23.1757 2.75778 22.5499C2.13163 21.9353 1.64708 21.1915 1.33792 20.3703C1.0347 19.5871 0.826587 18.692 0.766168 17.3829C0.705748 16.0683 0.692322 15.6498 0.692322 12.3077C0.692322 8.96448 0.706867 8.54601 0.766168 7.23469C0.825469 5.92336 1.0347 5.02825 1.33792 4.24504C1.64754 3.42387 2.13245 2.68007 2.7589 2.06545C3.37321 1.43944 4.11663 0.954902 4.93736 0.645594C5.72057 0.342378 6.61568 0.134266 7.92477 0.0738461H7.92589ZM17.9734 2.28923C16.6755 2.22993 16.2862 2.21762 13 2.21762C9.71386 2.21762 9.32449 2.22993 8.02659 2.28923C6.82603 2.34406 6.17484 2.54434 5.74071 2.71329C5.16673 2.93706 4.7561 3.20224 4.32533 3.63301C3.91699 4.03027 3.60273 4.51388 3.40561 5.04839C3.23666 5.48252 3.03638 6.13371 2.98155 7.33427C2.92225 8.63217 2.90994 9.02154 2.90994 12.3077C2.90994 15.5938 2.92225 15.9832 2.98155 17.2811C3.03638 18.4817 3.23666 19.1329 3.40561 19.567C3.60253 20.1007 3.91694 20.5852 4.32533 20.9824C4.72253 21.3908 5.20701 21.7052 5.74071 21.9021C6.17484 22.071 6.82603 22.2713 8.02659 22.3262C9.32449 22.3855 9.71274 22.3978 13 22.3978C16.2873 22.3978 16.6755 22.3855 17.9734 22.3262C19.174 22.2713 19.8252 22.071 20.2593 21.9021C20.8333 21.6783 21.2439 21.4131 21.6747 20.9824C22.0831 20.5852 22.3975 20.1007 22.5944 19.567C22.7634 19.1329 22.9637 18.4817 23.0185 17.2811C23.0778 15.9832 23.0901 15.5938 23.0901 12.3077C23.0901 9.02154 23.0778 8.63217 23.0185 7.33427C22.9637 6.13371 22.7634 5.48252 22.5944 5.04839C22.3706 4.47441 22.1055 4.06378 21.6747 3.63301C21.2774 3.2247 20.7938 2.91045 20.2593 2.71329C19.8252 2.54434 19.174 2.34406 17.9734 2.28923ZM11.428 16.1018C12.3059 16.4673 13.2835 16.5166 14.1938 16.2414C15.104 15.9661 15.8905 15.3834 16.4189 14.5927C16.9472 13.802 17.1847 12.8524 17.0907 11.9061C16.9967 10.9598 16.5771 10.0755 15.9035 9.4042C15.4741 8.97508 14.9549 8.6465 14.3833 8.44212C13.8117 8.23774 13.2019 8.16264 12.5978 8.22223C11.9936 8.28181 11.4103 8.4746 10.8896 8.78672C10.3689 9.09883 9.92392 9.52251 9.58665 10.0272C9.24937 10.532 9.0282 11.1052 8.93905 11.7057C8.84991 12.3062 8.89501 12.9189 9.07111 13.4999C9.24721 14.0808 9.54992 14.6155 9.95746 15.0654C10.365 15.5153 10.8672 15.8693 11.428 16.1018ZM8.52673 7.83441C9.11417 7.24696 9.81156 6.78098 10.5791 6.46306C11.3466 6.14514 12.1692 5.98151 13 5.98151C13.8308 5.98151 14.6534 6.14514 15.4209 6.46306C16.1885 6.78098 16.8859 7.24696 17.4733 7.83441C18.0607 8.42185 18.5267 9.11924 18.8446 9.88677C19.1626 10.6543 19.3262 11.4769 19.3262 12.3077C19.3262 13.1385 19.1626 13.9611 18.8446 14.7286C18.5267 15.4961 18.0607 16.1935 17.4733 16.781C16.2869 17.9674 14.6778 18.6339 13 18.6339C11.3222 18.6339 9.71312 17.9674 8.52673 16.781C7.34034 15.5946 6.67383 13.9855 6.67383 12.3077C6.67383 10.6299 7.34034 9.02079 8.52673 7.83441ZM20.7292 6.92364C20.8748 6.78631 20.9914 6.62118 21.072 6.43801C21.1526 6.25484 21.1956 6.05736 21.1985 5.85726C21.2014 5.65717 21.1642 5.45851 21.0889 5.27307C21.0137 5.08763 20.902 4.91917 20.7605 4.77767C20.619 4.63616 20.4506 4.52448 20.2651 4.44925C20.0797 4.37402 19.881 4.33676 19.6809 4.33967C19.4808 4.34259 19.2834 4.38563 19.1002 4.46623C18.917 4.54684 18.7519 4.66338 18.6146 4.80895C18.3475 5.09206 18.2013 5.46811 18.207 5.85726C18.2126 6.24642 18.3697 6.61805 18.6449 6.89325C18.9201 7.16846 19.2918 7.32557 19.6809 7.33124C20.0701 7.33692 20.4461 7.1907 20.7292 6.92364Z" fill="white"/>
</svg>
