<svg width="25" height="25" viewBox="0 0 25 25" fill="none" xmlns="http://www.w3.org/2000/svg">
<path fill-rule="evenodd" clip-rule="evenodd" d="M0.384644 2.05651C0.384644 1.51109 0.601311 0.988008 0.98698 0.602339C1.37265 0.216669 1.89573 2.74161e-06 2.44115 2.74161e-06H22.9413C23.2116 -0.000438715 23.4793 0.0524368 23.7291 0.155602C23.979 0.258767 24.206 0.410195 24.3972 0.601218C24.5885 0.792241 24.7401 1.01911 24.8436 1.26882C24.947 1.51854 25.0002 1.78621 25 2.05651V22.5566C25.0003 22.827 24.9473 23.0947 24.844 23.3446C24.7407 23.5944 24.5892 23.8214 24.3981 24.0127C24.207 24.2039 23.98 24.3555 23.7303 24.459C23.4805 24.5624 23.2127 24.6155 22.9424 24.6154H2.44115C2.17099 24.6154 1.90348 24.5622 1.6539 24.4587C1.40432 24.3553 1.17756 24.2037 0.986584 24.0127C0.795605 23.8216 0.644148 23.5947 0.540865 23.3451C0.437581 23.0955 0.384497 22.8279 0.384644 22.5578V2.05651ZM10.1279 9.38518H13.461V11.059C13.9421 10.0968 15.1729 9.23077 17.0224 9.23077C20.5681 9.23077 21.4084 11.1474 21.4084 14.6641V21.1782H17.8202V15.4652C17.8202 13.4624 17.339 12.3323 16.1172 12.3323C14.4221 12.3323 13.7172 13.5508 13.7172 15.4652V21.1782H10.1279V9.38518ZM3.97401 21.0249H7.56338V9.23077H3.97401V21.0238V21.0249ZM8.07695 5.38406C8.08372 5.69138 8.02903 5.99697 7.9161 6.28287C7.80317 6.56878 7.63427 6.82924 7.41931 7.04899C7.20435 7.26873 6.94766 7.44333 6.66431 7.56253C6.38096 7.68173 6.07666 7.74313 5.76926 7.74313C5.46186 7.74313 5.15755 7.68173 4.8742 7.56253C4.59086 7.44333 4.33417 7.26873 4.11921 7.04899C3.90425 6.82924 3.73535 6.56878 3.62242 6.28287C3.50949 5.99697 3.4548 5.69138 3.46157 5.38406C3.47485 4.78082 3.72382 4.20676 4.15514 3.78483C4.58647 3.36289 5.16587 3.12662 5.76926 3.12662C6.37264 3.12662 6.95204 3.36289 7.38337 3.78483C7.8147 4.20676 8.06367 4.78082 8.07695 5.38406Z" fill="white"/>
</svg>
