<svg width="122" height="71" viewBox="0 0 122 71" fill="none" xmlns="http://www.w3.org/2000/svg">
<path d="M3.63656 37.3334C2.72312 37.1057 1.8828 36.6479 1.19522 36.0033C0.880118 35.6431 0.639955 35.2234 0.488852 34.7688C0.33775 34.3142 0.278729 33.834 0.315287 33.3562C0.286658 32.7194 0.409684 32.0849 0.674183 31.5052C0.938683 30.9255 1.33704 30.4173 1.83631 30.0226C3.04131 29.1613 4.50276 28.7369 5.98028 28.8191C6.70066 28.8192 7.41957 28.8847 8.12815 29.015C8.85927 29.1523 9.578 29.3492 10.2772 29.6036C10.2352 30.1156 10.1414 30.6221 9.99741 31.1151C9.868 31.5894 9.69047 32.049 9.4676 32.487C8.98681 32.2889 8.49267 32.1251 7.98886 31.9969C7.43279 31.8543 6.86082 31.7837 6.28687 31.7867C5.77724 31.7602 5.26906 31.8614 4.80813 32.081C4.63958 32.1695 4.49996 32.3047 4.40601 32.4706C4.31206 32.6364 4.26772 32.8259 4.27829 33.0164C4.26088 33.1811 4.28608 33.3476 4.35143 33.4997C4.41678 33.6519 4.52009 33.7845 4.65142 33.885C4.98662 34.0915 5.34804 34.2518 5.72595 34.3614L7.31665 34.8378C7.80232 34.9746 8.2739 35.1573 8.7251 35.3835C9.12652 35.5856 9.49007 35.8559 9.79966 36.1823C10.1105 36.5222 10.348 36.9228 10.4974 37.3589C10.677 37.9098 10.7611 38.4875 10.7461 39.0669C10.75 39.7361 10.6012 40.3974 10.3108 41C10.0148 41.6066 9.58554 42.1381 9.0553 42.5545C8.45845 43.0183 7.7825 43.3695 7.06042 43.5909C6.20159 43.8535 5.30729 43.9808 4.4095 43.9681C3.96364 43.9681 3.55322 43.9544 3.18198 43.9264C2.8214 43.9007 2.46264 43.854 2.10745 43.7867C1.76295 43.7206 1.4234 43.642 1.08823 43.5491C0.753053 43.4562 0.390518 43.3346 0 43.1843C0.0393725 42.6681 0.128529 42.1568 0.266174 41.6578C0.405732 41.1447 0.587497 40.6442 0.809642 40.1613C1.37456 40.3895 1.95684 40.572 2.55084 40.7069C3.11452 40.8307 3.69008 40.892 4.26713 40.8896C4.55184 40.8873 4.83595 40.8638 5.11716 40.8191C5.41134 40.7771 5.69803 40.6932 5.96848 40.5697C6.21713 40.4575 6.44021 40.2953 6.62391 40.0933C6.8176 39.8375 6.91047 39.519 6.88477 39.1989C6.85907 38.8787 6.71661 38.5793 6.48462 38.3579C6.13814 38.1255 5.75663 37.9505 5.35472 37.8397L3.63656 37.3334Z" fill="white"/>
<path d="M19.2468 40.9475C19.692 40.982 20.138 40.8915 20.5349 40.6861C20.9317 40.4807 21.2636 40.1685 21.4935 39.7846C21.9448 38.7269 22.1775 37.5884 22.1775 36.4379C22.1775 35.2874 21.9448 34.1489 21.4935 33.0912C21.2636 32.7073 20.9317 32.3951 20.5349 32.1897C20.138 31.9843 19.692 31.8938 19.2468 31.9282C18.8057 31.8959 18.3645 31.9876 17.9726 32.1931C17.5808 32.3985 17.2538 32.7096 17.0286 33.0912C16.5773 34.1489 16.3447 35.2874 16.3447 36.4379C16.3447 37.5884 16.5773 38.7269 17.0286 39.7846C17.2538 40.1662 17.5808 40.4772 17.9726 40.6827C18.3645 40.8881 18.8057 40.9799 19.2468 40.9475ZM19.2468 43.9719C18.1997 43.9957 17.1592 43.8003 16.1917 43.3982C15.361 43.0411 14.625 42.4942 14.0425 41.8012C13.4619 41.0955 13.0259 40.2818 12.7597 39.4067C12.4631 38.4455 12.3163 37.4441 12.3244 36.4379C12.318 35.4226 12.4647 34.4123 12.7597 33.441C13.0219 32.556 13.4581 31.7325 14.0425 31.0191C14.6268 30.3246 15.362 29.7736 16.1917 29.4084C17.1566 28.9962 18.1982 28.7955 19.2468 28.8197C20.3001 28.7966 21.3463 28.9972 22.3168 29.4084C23.1545 29.7731 23.8987 30.3239 24.4933 31.0191C25.0843 31.7281 25.5213 32.553 25.7761 33.441C26.0612 34.4141 26.2024 35.4238 26.1953 36.4379C26.204 37.4429 26.0627 38.4436 25.7761 39.4067C25.5173 40.2849 25.0806 41.1 24.4933 41.8012C23.9005 42.495 23.1556 43.0416 22.3168 43.3982C21.3438 43.7993 20.2986 43.9946 19.2468 43.9719Z" fill="white"/>
<path d="M28.5253 29.1558C29.8364 28.9316 31.1759 28.9316 32.487 29.1558V36.8301C32.4734 37.465 32.5342 38.0994 32.668 38.7201C32.7583 39.1513 32.9502 39.5546 33.2276 39.8962C33.4756 40.1842 33.7986 40.3975 34.1604 40.5123C34.5852 40.6423 35.0278 40.704 35.4719 40.695C36.0547 40.7074 36.6365 40.6413 37.2018 40.4986V29.1558C37.8471 29.0455 38.5005 28.9892 39.1551 28.9875C39.8188 28.9884 40.4813 29.0447 41.1357 29.1558V43.0752C40.3637 43.3268 39.5762 43.528 38.7782 43.6775C37.7721 43.8768 36.7487 43.9754 35.7231 43.9718C34.8064 43.9745 33.8911 43.8996 32.987 43.748C32.1561 43.6162 31.3679 43.29 30.6862 42.7958C29.9754 42.2451 29.4299 41.5085 29.1098 40.6669C28.6755 39.4752 28.4763 38.2103 28.5234 36.9424L28.5253 29.1558Z" fill="white"/>
<path d="M1.27081 49.5177C1.68043 49.4295 2.09623 49.3732 2.5145 49.3493C2.89507 49.3312 3.22589 49.3219 3.50386 49.3219C3.87696 49.3219 4.2501 49.3312 4.62321 49.3493C4.97094 49.3653 5.31655 49.412 5.65606 49.489L8.80946 60.2724L11.9062 49.489C12.2221 49.4333 12.5569 49.3917 12.9105 49.3643C13.2641 49.3368 13.6165 49.3231 13.9676 49.3231C14.2475 49.3231 14.5677 49.3325 14.9315 49.3506C15.3495 49.3769 15.7652 49.4332 16.1752 49.5189L10.7061 63.9701C10.3365 64.028 9.96411 64.0654 9.59049 64.0824C9.19872 64.1005 8.87349 64.1111 8.61293 64.1111C8.33435 64.1111 8.01721 64.1011 7.664 64.0824C7.32582 64.0652 6.98979 64.0185 6.65973 63.9427L1.27081 49.5177Z" fill="#F6B700"/>
<path d="M24.9177 57.3316C24.6946 57.2942 24.4527 57.2615 24.192 57.2337C23.9603 57.2072 23.7274 57.1933 23.4943 57.1919C22.7423 57.154 21.9942 57.3235 21.3315 57.682C21.0682 57.8484 20.8551 58.0836 20.7151 58.3624C20.575 58.6411 20.5134 58.9528 20.5368 59.264C20.5104 59.6621 20.6184 60.0574 20.8434 60.3865C21.036 60.6388 21.2908 60.8365 21.5827 60.9602C21.8758 61.083 22.1864 61.1585 22.503 61.184C22.8289 61.2127 23.1125 61.227 23.3544 61.227C23.6348 61.2267 23.9148 61.2032 24.1914 61.1566C24.4712 61.1098 24.7125 61.068 24.9171 61.0319L24.9177 57.3316ZM24.9177 54.447C24.9328 54.07 24.8562 53.6951 24.6945 53.3545C24.5533 53.0834 24.3411 52.8559 24.0807 52.6966C23.7842 52.5256 23.4564 52.4162 23.1168 52.3748C22.6964 52.3157 22.2722 52.2876 21.8477 52.2907C20.753 52.3066 19.6686 52.5051 18.6389 52.8781C18.3992 52.4412 18.2032 51.9817 18.0538 51.5062C17.9139 51.0049 17.8479 50.4858 17.8579 49.9654C18.6577 49.6903 19.4794 49.4842 20.3142 49.3493C21.0707 49.2239 21.8358 49.1584 22.6026 49.1535C24.233 49.0552 25.8438 49.5528 27.1364 50.554C28.2247 51.4873 28.769 52.9808 28.7694 55.0344V63.437C27.9895 63.6749 27.1976 63.8714 26.3971 64.0256C25.3576 64.2219 24.3014 64.3154 23.2437 64.305C22.3668 64.3133 21.4915 64.2297 20.6319 64.0555C19.9041 63.9136 19.2116 63.6281 18.5948 63.2156C18.0354 62.8326 17.5837 62.3116 17.2833 61.7028C16.9567 60.9926 16.7994 60.216 16.8237 59.4343C16.796 58.6438 16.9943 57.8619 17.3952 57.1807C17.7658 56.5841 18.2727 56.0846 18.874 55.7234C19.4999 55.3511 20.1833 55.0859 20.8962 54.939C21.6303 54.7819 22.3787 54.7022 23.1293 54.7014C23.6682 54.7014 24.2635 54.7294 24.9152 54.7856L24.9177 54.447Z" fill="#F6B700"/>
<path d="M37.1867 56.8284C37.5011 56.8579 37.818 56.8124 38.1114 56.6954C38.4049 56.5785 38.6665 56.3935 38.875 56.1556C39.2471 55.6142 39.4287 54.9638 39.3911 54.3073C39.4269 53.6466 39.2456 52.9923 38.875 52.4447C38.6688 52.2033 38.4079 52.0149 38.1141 51.8956C37.8203 51.7762 37.5023 51.7293 37.1867 51.7588C36.8649 51.7288 36.5405 51.7752 36.2399 51.8944C35.9393 52.0136 35.671 52.2021 35.4567 52.4447C35.0774 52.9887 34.8909 53.6445 34.9269 54.3073C34.889 54.9659 35.0759 55.6177 35.4567 56.1556C35.6733 56.3945 35.9424 56.5797 36.2426 56.6965C36.5428 56.8133 36.866 56.8584 37.1867 56.8284ZM36.0406 64.474C35.6952 64.4451 35.3477 64.4928 35.0227 64.6137C34.7783 64.7084 34.5586 64.8577 34.3803 65.0502C34.2266 65.2187 34.1121 65.4193 34.0451 65.6376C33.9816 65.8417 33.9489 66.0542 33.9481 66.268C33.918 66.561 33.978 66.8562 34.1201 67.114C34.2621 67.3719 34.4794 67.5799 34.7428 67.7103C35.4184 67.9903 36.1467 68.1194 36.877 68.0888C37.852 68.1295 38.8226 67.9371 39.7089 67.5276C40.0157 67.4082 40.2809 67.2013 40.4719 66.9325C40.6628 66.6636 40.7711 66.3447 40.7834 66.0148C40.7841 65.8352 40.7604 65.6562 40.7132 65.4829C40.6636 65.3095 40.5726 65.1507 40.4482 65.0202C40.2948 64.8651 40.1093 64.7457 39.9047 64.6704C39.605 64.5667 39.2888 64.5194 38.972 64.5307L36.0406 64.474ZM39.6119 61.5607C41.3045 61.5981 42.5509 61.9762 43.351 62.695C44.0062 63.3777 44.4187 64.258 44.5247 65.1996C44.6307 66.1412 44.4243 67.0916 43.9374 67.9036C43.5076 68.5678 42.9355 69.1276 42.2628 69.5424C41.4858 70.0193 40.6379 70.3692 39.7512 70.5787C38.7281 70.8276 37.6785 70.9497 36.6258 70.9423C35.6704 70.9581 34.7162 70.869 33.7802 70.6766C33.1052 70.5414 32.4585 70.2904 31.8687 69.9346C31.4084 69.6546 31.0397 69.2458 30.8078 68.7585C30.5905 68.2747 30.4812 67.749 30.4875 67.2183C30.4568 66.4801 30.6676 65.752 31.0876 65.145C31.5254 64.5696 32.0702 64.0849 32.692 63.7176C32.2845 63.4756 31.9362 63.1451 31.6728 62.7504C31.4071 62.3079 31.2773 61.7967 31.2997 61.2807C31.2729 60.6702 31.4281 60.0656 31.7455 59.5441C32.1009 59.0388 32.5448 58.6024 33.0558 58.2564C32.4259 57.8144 31.9093 57.2291 31.5484 56.5484C31.1904 55.857 31.0084 55.0876 31.0186 54.3086C31.0124 53.6094 31.1553 52.9169 31.4377 52.2776C31.7172 51.6534 32.1318 51.0996 32.6515 50.6563C33.2229 50.1758 33.8809 49.8096 34.5898 49.5775C35.4185 49.3059 36.2863 49.1733 37.1581 49.1853C38.0328 49.177 38.902 49.3248 39.725 49.6218C40.4363 49.8711 41.0974 50.2459 41.677 50.7287C42.0179 50.2719 42.4696 49.91 42.9891 49.6773C43.6645 49.4167 44.3859 49.2976 45.109 49.3275C45.1463 49.5707 45.1792 49.8089 45.2078 50.0421C45.2361 50.2884 45.25 50.5362 45.2495 50.7841C45.2495 51.0828 45.2396 51.3822 45.2215 51.6796C45.2021 51.99 45.1647 52.299 45.1096 52.605H42.8504C42.9533 52.8209 43.0366 53.0456 43.0992 53.2766C43.1828 53.6154 43.2205 53.964 43.2111 54.3129C43.2172 55.0102 43.0796 55.7012 42.8069 56.3426C42.5402 56.9639 42.1341 57.515 41.6204 57.9533C41.0561 58.4262 40.4074 58.7876 39.7089 59.0184C38.8867 59.2905 38.025 59.4231 37.1593 59.4106C36.4352 59.4208 35.7129 59.3369 35.0102 59.1612C34.7457 59.3066 34.5391 59.5389 34.4251 59.8191C34.354 60.0312 34.3162 60.2531 34.3131 60.4769C34.308 60.6122 34.3315 60.7471 34.382 60.8726C34.4326 60.9982 34.5092 61.1115 34.6067 61.2052C34.9561 61.4384 35.3735 61.5469 35.7919 61.5133L39.6119 61.5607Z" fill="#F6B700"/>
<path d="M54.5143 57.3316C54.2913 57.2942 54.0494 57.2615 53.7886 57.2337C53.557 57.2072 53.3241 57.1933 53.091 57.1919C52.3389 57.154 51.5909 57.3235 50.9282 57.682C50.6647 57.8483 50.4515 58.0835 50.3113 58.3623C50.1712 58.641 50.1095 58.9528 50.1328 59.264C50.1066 59.6622 50.2148 60.0575 50.44 60.3865C50.6326 60.6389 50.8874 60.8366 51.1794 60.9602C51.4725 61.083 51.7831 61.1585 52.0997 61.184C52.4255 61.2127 52.7091 61.227 52.951 61.227C53.2315 61.2267 53.5114 61.2032 53.788 61.1566C54.0678 61.1098 54.3085 61.068 54.5137 61.0319L54.5143 57.3316ZM54.5143 54.447C54.5294 54.07 54.4529 53.6951 54.2911 53.3545C54.1499 53.0834 53.9377 52.8559 53.6773 52.6966C53.3812 52.5258 53.0538 52.4163 52.7147 52.3748C52.2938 52.3157 51.8693 52.2876 51.4443 52.2907C50.3496 52.3066 49.2652 52.5051 48.2356 52.8781C47.9959 52.4413 47.7999 51.9817 47.6504 51.5062C47.5105 51.0049 47.4445 50.4858 47.4545 49.9654C48.2543 49.6903 49.0761 49.4842 49.9108 49.3493C50.6673 49.2239 51.4325 49.1584 52.1992 49.1535C53.8297 49.0552 55.4404 49.5528 56.7331 50.554C57.8213 51.4873 58.3656 52.9808 58.366 55.0344V63.437C57.5861 63.6749 56.7943 63.8714 55.9937 64.0256C54.9542 64.2219 53.898 64.3154 52.8403 64.305C51.9635 64.3133 51.0881 64.2297 50.2286 64.0555C49.5007 63.9136 48.8083 63.6281 48.1914 63.2156C47.6321 62.8325 47.1804 62.3116 46.8799 61.7028C46.5533 60.9926 46.396 60.216 46.4204 59.4343C46.3928 58.6437 46.5914 57.8618 46.9925 57.1807C47.3631 56.5841 47.87 56.0846 48.4713 55.7234C49.0972 55.3511 49.7806 55.0859 50.4935 54.939C51.2276 54.7819 51.9759 54.7022 52.7265 54.7014C53.2654 54.7014 53.8608 54.7294 54.5125 54.7856L54.5143 54.447Z" fill="#F6B700"/>
<path d="M61.2234 43.4965C61.8782 43.3854 62.5411 43.329 63.2052 43.3281C63.8598 43.3299 64.5132 43.3863 65.1585 43.4965V58.2003C65.15 58.6689 65.1826 59.1373 65.2561 59.6002C65.2976 59.8946 65.4024 60.1765 65.5633 60.4264C65.6956 60.6175 65.8864 60.7602 66.1068 60.833C66.3787 60.9139 66.6615 60.9515 66.945 60.9446C67.1081 60.9438 67.2711 60.9343 67.4332 60.9159C67.6067 60.8984 67.779 60.8707 67.9493 60.833C68.1486 61.563 68.2516 62.316 68.2559 63.0728V63.4788C68.2534 63.616 68.2349 63.7525 68.2005 63.8853C67.8501 63.9877 67.49 64.0534 67.126 64.0811C66.7068 64.1186 66.3207 64.1371 65.9675 64.1367C64.7092 64.1983 63.4755 63.7723 62.5218 62.9469C61.6566 62.1537 61.2241 60.8606 61.2241 59.0677L61.2234 43.4965Z" fill="#F6B700"/>
<path d="M69.5823 49.4896C70.8934 49.2653 72.2329 49.2653 73.544 49.4896V57.1639C73.5304 57.7988 73.5912 58.4331 73.725 59.0539C73.8152 59.4851 74.0071 59.8884 74.2846 60.23C74.5327 60.518 74.8556 60.7313 75.2174 60.846C75.6422 60.9761 76.0848 61.0377 76.5289 61.0287C77.1117 61.0412 77.6936 60.9751 78.2589 60.8323V49.4896C78.9042 49.3792 79.5575 49.3229 80.2121 49.3212C80.8758 49.3221 81.5383 49.3785 82.1927 49.4896V63.4089C81.4207 63.6606 80.6332 63.8618 79.8352 64.0113C78.8291 64.2106 77.8057 64.3092 76.7801 64.3056C75.8634 64.3082 74.9482 64.2333 74.044 64.0817C73.2131 63.95 72.4249 63.6238 71.7432 63.1295C71.0327 62.5786 70.4873 61.842 70.1668 61.0007C69.7325 59.809 69.5333 58.544 69.5804 57.2761L69.5823 49.4896Z" fill="#F6B700"/>
<path d="M85.4287 49.4896C85.6868 49.4348 85.9475 49.3932 86.2097 49.3649C86.4972 49.336 86.7859 49.322 87.0747 49.3231C87.3543 49.3215 87.6337 49.3354 87.9117 49.3649C88.153 49.3932 88.404 49.4347 88.6648 49.4896C88.7345 49.6172 88.7864 49.7538 88.819 49.8955C88.8656 50.0739 88.9073 50.2603 88.9434 50.4568C88.9794 50.6532 89.0137 50.8446 89.041 51.0305C89.0684 51.2163 89.092 51.3772 89.1113 51.5069C89.2741 51.2056 89.4703 50.9238 89.6964 50.6669C89.9494 50.377 90.2403 50.1227 90.5614 49.9111C90.912 49.6791 91.292 49.4951 91.6913 49.3643C92.1465 49.2187 92.6221 49.1477 93.0998 49.1541C95.3509 49.1541 96.7927 50.0134 97.4253 51.732C97.8136 51.0216 98.3515 50.4045 99.0017 49.9236C99.7535 49.3871 100.662 49.116 101.584 49.1529C103.22 49.1529 104.424 49.606 105.197 50.5123C105.969 51.4185 106.355 52.8319 106.355 54.7525V63.9664C105.043 64.1907 103.704 64.1907 102.392 63.9664V55.7914C102.431 54.9987 102.304 54.2065 102.019 53.4661C101.878 53.1915 101.657 52.9666 101.385 52.8217C101.114 52.6767 100.804 52.6187 100.498 52.6555C100.182 52.6557 99.8681 52.7027 99.5657 52.7951C99.248 52.8951 98.9602 53.0732 98.7287 53.3133C98.4466 53.6168 98.2367 53.9806 98.115 54.3772C97.9397 54.953 97.8595 55.5537 97.8774 56.1556V63.9695C96.5663 64.1938 95.2268 64.1938 93.9157 63.9695V55.7914C93.9536 54.9984 93.8252 54.2062 93.5388 53.4661C93.3984 53.1912 93.1773 52.9661 92.9053 52.8211C92.6334 52.6761 92.3236 52.6183 92.0178 52.6555C91.6968 52.6562 91.3777 52.7032 91.0701 52.7951C90.742 52.8957 90.4476 53.0844 90.2188 53.3408C89.9368 53.6692 89.7318 54.0568 89.6187 54.475C89.4527 55.0959 89.3775 55.7376 89.3954 56.3801V63.9701C88.0843 64.1944 86.7448 64.1944 85.4337 63.9701L85.4287 49.4896Z" fill="#F6B700"/>
<path d="M118.229 55.1741C118.231 54.3885 117.97 53.625 117.49 53.0047C117.256 52.7286 116.962 52.5105 116.63 52.3671C116.299 52.2238 115.939 52.1593 115.578 52.1784C115.19 52.1511 114.8 52.2069 114.434 52.3422C114.069 52.4774 113.736 52.689 113.458 52.9629C112.934 53.5839 112.63 54.3618 112.593 55.1747L118.229 55.1741ZM112.565 57.9471C112.561 58.4164 112.664 58.8804 112.867 59.3031C113.07 59.7258 113.368 60.0957 113.738 60.384C114.566 60.9231 115.542 61.1875 116.528 61.1398C117.178 61.1382 117.828 61.0773 118.467 60.9577C119.109 60.8412 119.739 60.6677 120.35 60.4395C120.576 60.8666 120.754 61.3175 120.881 61.7839C121.033 62.3326 121.117 62.8982 121.13 63.4675C119.558 64.0485 117.893 64.3332 116.217 64.3075C115.044 64.3349 113.876 64.1446 112.772 63.7463C111.881 63.4176 111.078 62.8854 110.428 62.1917C109.814 61.5112 109.356 60.7033 109.089 59.8253C108.791 58.8546 108.644 57.8438 108.653 56.8284C108.646 55.8135 108.797 54.8037 109.1 53.8353C109.375 52.9423 109.826 52.1137 110.426 51.3984C111.023 50.699 111.766 50.1396 112.602 49.7596C113.556 49.34 114.589 49.1345 115.63 49.1573C116.55 49.1407 117.463 49.3225 118.308 49.6904C119.068 50.0292 119.748 50.5254 120.303 51.1464C120.865 51.7848 121.288 52.5333 121.547 53.3445C121.83 54.2268 121.971 55.1488 121.965 56.0758C121.965 56.4304 121.951 56.7804 121.924 57.1258C121.896 57.4713 121.863 57.7467 121.825 57.9521L112.565 57.9471Z" fill="#F6B700"/>
<path d="M54.4522 7.37762C54.1027 8.50379 50.0849 12.3843 45.7923 16.5665C45.7176 15.8069 45.5621 15.0575 45.3285 14.331C45.2041 13.9139 45.0797 13.5828 44.9908 13.3626C44.9908 13.3626 44.8167 12.8862 44.6295 12.4273C43.973 10.7906 43.1707 9.21656 42.2323 7.72433C43.4836 6.48468 44.9398 5.47198 46.5361 4.7312C49.4724 3.47783 52.5817 3.47845 53.7943 4.3926C54.0856 4.61475 54.3248 4.89828 54.495 5.2232C54.6331 5.56753 54.7004 5.93625 54.6931 6.30729C54.6857 6.67833 54.6038 7.04406 54.4522 7.38261V7.37762ZM26.0127 7.38261C25.8611 7.04406 25.7792 6.67833 25.7718 6.30729C25.7645 5.93625 25.8318 5.56753 25.9698 5.2232C26.1395 4.89792 26.3788 4.61429 26.6706 4.3926C27.8832 3.47907 30.9924 3.47783 33.9288 4.7312C35.5251 5.47201 36.9813 6.4847 38.2326 7.72433C37.2938 9.21631 36.4914 10.7904 35.8354 12.4273C35.6488 12.8887 35.4741 13.3626 35.4741 13.3626C35.387 13.5796 35.2589 13.9139 35.1364 14.331C34.9025 15.0575 34.7467 15.8069 34.6719 16.5665C30.3812 12.3843 26.3616 8.50379 26.0121 7.37762L26.0127 7.38261ZM40.2318 20.9309C39.0597 20.8978 37.2432 20.0055 37.2432 17.3803C37.2578 16.6377 37.3977 15.903 37.6568 15.2072C37.8641 14.6337 38.1045 14.0727 38.3769 13.5273C38.5634 13.1226 38.8184 12.5826 39.2014 11.8885C39.4949 11.3554 39.8015 10.8341 40.1342 10.3296C40.1671 10.281 40.2014 10.2354 40.2337 10.1862C40.2666 10.2348 40.3002 10.2803 40.3332 10.3296C40.664 10.8285 40.9706 11.3523 41.2659 11.8885C41.649 12.5832 41.9015 13.1226 42.0905 13.5273C42.3622 14.073 42.6027 14.6339 42.8106 15.2072C43.0698 15.9029 43.2096 16.6377 43.2241 17.3803C43.2241 20.0055 41.4077 20.8978 40.2362 20.9309H40.2318ZM57.6851 3.93739C57.3757 3.06507 56.8607 2.28062 56.184 1.65077C55.8468 1.33916 55.4752 1.06718 55.0765 0.840115C54.3073 0.415759 53.4619 0.14851 52.5891 0.053803C50.0775 -0.166898 47.5529 0.294011 45.28 1.38823C44.4821 1.78658 43.7182 2.25001 42.9959 2.77381C41.9998 3.48795 41.0757 4.29809 40.2368 5.19264C39.3979 4.29812 38.4738 3.48799 37.4777 2.77381C36.7555 2.25001 35.9916 1.78659 35.1937 1.38823C32.9207 0.294011 30.3961 -0.166898 27.8845 0.053803C27.0116 0.148315 26.1662 0.415576 25.3971 0.840115C24.9981 1.06681 24.6265 1.33883 24.2896 1.65077C23.6127 2.28057 23.0975 3.06502 22.7879 3.93739C22.496 4.80079 22.4032 5.71932 22.5164 6.62387C22.6296 7.52843 22.9458 8.39547 23.4414 9.15979C23.8736 9.72934 24.3413 10.2709 24.8418 10.7811C25.3965 11.3834 25.8778 11.863 26.2167 12.1916C26.2167 12.1916 34.3243 20.202 37.0449 22.3626C37.9577 23.0735 39.0805 23.4593 40.2362 23.4593C41.3919 23.4593 42.5147 23.0735 43.4275 22.3626C46.1381 20.1882 54.2569 12.1916 54.2569 12.1916C54.5958 11.863 55.0765 11.3809 55.6318 10.7811C56.1323 10.2709 56.6 9.72936 57.0322 9.15979C57.5275 8.39536 57.8436 7.52832 57.9568 6.62381C58.07 5.7193 57.9773 4.80084 57.6858 3.93739" fill="white"/>
<path d="M50.5184 28.8273C50.8685 27.7011 54.8855 23.8206 59.1781 19.6384C59.2528 20.398 59.4083 21.1474 59.6421 21.8738C59.7664 22.291 59.8908 22.6221 59.9797 22.8423C59.9797 22.8423 60.1538 23.3187 60.341 23.7776C60.9975 25.4143 61.7998 26.9883 62.7382 28.4806C61.4869 29.7202 60.0307 30.7329 58.4344 31.4737C55.4981 32.7271 52.3888 32.7264 51.1763 31.8123C50.8848 31.5902 50.6456 31.3067 50.4754 30.9817C50.3374 30.6374 50.27 30.2687 50.2774 29.8976C50.2848 29.5266 50.3667 29.1608 50.5184 28.8223V28.8273ZM78.9578 28.8223C79.1094 29.1608 79.1913 29.5266 79.1987 29.8976C79.2061 30.2686 79.1387 30.6374 79.0007 30.9817C78.8309 31.3069 78.5916 31.5905 78.2999 31.8123C77.0873 32.7258 73.978 32.7271 71.0417 31.4737C69.4454 30.7329 67.9892 29.7202 66.7379 28.4806C67.6768 26.9886 68.4791 25.4145 69.1351 23.7776C69.3217 23.3162 69.4964 22.8423 69.4964 22.8423C69.6252 22.5254 69.7379 22.2022 69.8341 21.8738C70.068 21.1474 70.2237 20.398 70.2986 19.6384C74.5893 23.8206 78.6089 27.7011 78.9584 28.8273L78.9578 28.8223ZM64.7387 15.274C65.9109 15.307 67.7266 16.1994 67.7266 18.8246C67.7121 19.5672 67.5723 20.3019 67.3131 20.9977C67.1057 21.5702 66.8652 22.13 66.593 22.6745C66.4065 23.0792 66.1515 23.6192 65.7685 24.3132C65.4749 24.8464 65.1684 25.3677 64.8357 25.8722C64.8027 25.9208 64.7691 25.9663 64.7362 26.0156C64.7032 25.967 64.6697 25.9214 64.6367 25.8722C64.3059 25.3733 63.9993 24.8495 63.7039 24.3132C63.3215 23.6186 63.0684 23.0792 62.8794 22.6745C62.6076 22.1288 62.3672 21.5679 62.1593 20.9946C61.9003 20.2988 61.7607 19.564 61.7464 18.8215C61.7464 16.1963 63.5628 15.3039 64.7343 15.2709L64.7387 15.274ZM47.2854 32.265C47.5947 33.1374 48.1097 33.9218 48.7865 34.5516C49.1239 34.8635 49.4959 35.1355 49.8953 35.3623C50.6643 35.787 51.5098 36.0543 52.3826 36.1486C54.8943 36.3693 57.4189 35.9084 59.6918 34.8142C60.4897 34.4158 61.2536 33.9524 61.9758 33.4286C62.9725 32.7148 63.8968 31.9047 64.7356 31.0098C65.5743 31.9047 66.4987 32.7148 67.4953 33.4286C68.2175 33.9524 68.9814 34.4158 69.7794 34.8142C72.0523 35.9084 74.5769 36.3693 77.0885 36.1486C77.9613 36.0541 78.8068 35.7868 79.5759 35.3623C79.9749 35.1356 80.3465 34.8636 80.6834 34.5516C81.3604 33.9219 81.8756 33.1374 82.1851 32.265C82.477 31.4016 82.5698 30.4831 82.4566 29.5785C82.3434 28.674 82.0271 27.8069 81.5316 27.0426C81.0993 26.473 80.6313 25.9315 80.1306 25.4213C79.5759 24.819 79.0946 24.3394 78.7563 24.0108C78.7563 24.0108 70.6493 16.0005 67.9281 13.841C67.0157 13.1295 65.8927 12.7432 64.7368 12.7432C63.5809 12.7432 62.458 13.1295 61.5455 13.841C58.8349 16.0142 50.7161 24.0108 50.7161 24.0108C50.3778 24.3394 49.8965 24.8215 49.3412 25.4213C48.8407 25.9316 48.373 26.4731 47.9408 27.0426C47.4455 27.807 47.1294 28.6741 47.0162 29.5786C46.903 30.4831 46.9957 31.4016 47.2872 32.265" fill="white"/>
</svg>
