<svg width="57" height="56" viewBox="0 0 57 56" fill="none" xmlns="http://www.w3.org/2000/svg">
<path d="M33.75 38.5V47.8753C33.75 49.5664 33.0781 51.1882 31.8821 52.3837C30.6861 53.5793 29.0641 54.2506 27.373 54.25H12.127C10.4359 54.2506 8.81391 53.5793 7.61792 52.3837C6.42193 51.1882 5.75 49.5664 5.75 47.8753V11.627C5.75 8.10508 8.60508 5.25 12.127 5.25H19.75" stroke="#17252F" stroke-width="3" stroke-linecap="round" stroke-linejoin="round"/>
<path d="M5.75 43.75H33.75" stroke="#17252F" stroke-width="3" stroke-linecap="round" stroke-linejoin="round"/>
<path d="M47.244 16.9573C46.9136 18.0193 43.1142 21.6787 39.0549 25.6227C38.9843 24.9063 38.8372 24.1996 38.6163 23.5145C38.4987 23.1211 38.381 22.8089 38.297 22.6013C38.297 22.6013 38.1323 22.152 37.9553 21.7192C37.3345 20.1758 36.5758 18.6915 35.6884 17.2842C36.8717 16.1152 38.2487 15.1602 39.7583 14.4616C42.535 13.2797 45.4752 13.2803 46.6219 14.1423C46.8974 14.3518 47.1236 14.6192 47.2846 14.9256C47.4151 15.2503 47.4788 15.598 47.4718 15.9479C47.4649 16.2978 47.3874 16.6427 47.244 16.962V16.9573ZM20.3505 16.962C20.2072 16.6427 20.1297 16.2978 20.1227 15.9479C20.1157 15.598 20.1794 15.2503 20.31 14.9256C20.4704 14.6189 20.6967 14.3514 20.9727 14.1423C22.1193 13.2809 25.0595 13.2797 27.8363 14.4616C29.3458 15.1602 30.7228 16.1152 31.9061 17.2842C31.0183 18.6912 30.2596 20.1756 29.6392 21.7192C29.4628 22.1544 29.2976 22.6013 29.2976 22.6013C29.2153 22.8059 29.0941 23.1211 28.9783 23.5145C28.757 24.1996 28.6098 24.9063 28.539 25.6227C24.4815 21.6787 20.6804 18.0193 20.3499 16.9573L20.3505 16.962ZM33.7967 29.7384C32.6882 29.7072 30.9706 28.8657 30.9706 26.3901C30.9844 25.6898 31.1166 24.9969 31.3616 24.3407C31.5577 23.7999 31.785 23.271 32.0426 22.7566C32.219 22.3749 32.4601 21.8657 32.8223 21.2112C33.0998 20.7084 33.3897 20.2168 33.7044 19.7411C33.7355 19.6952 33.7679 19.6523 33.7985 19.6058C33.8296 19.6517 33.8614 19.6946 33.8925 19.7411C34.2054 20.2115 34.4953 20.7055 34.7746 21.2112C35.1368 21.8663 35.3756 22.3749 35.5543 22.7566C35.8113 23.2712 36.0387 23.8001 36.2353 24.3407C36.4804 24.9969 36.6126 25.6898 36.6263 26.3901C36.6263 28.8657 34.9087 29.7072 33.8008 29.7384H33.7967ZM50.3012 13.7131C50.0086 12.8904 49.5216 12.1507 48.8817 11.5567C48.5628 11.2629 48.2115 11.0064 47.8344 10.7923C47.1071 10.3921 46.3076 10.14 45.4823 10.0507C43.1072 9.84261 40.7198 10.2773 38.5704 11.3091C37.8159 11.6848 37.0935 12.1218 36.4106 12.6158C35.4685 13.2892 34.5947 14.0532 33.8014 14.8968C33.0081 14.0532 32.1342 13.2893 31.1923 12.6158C30.5093 12.1218 29.7869 11.6848 29.0324 11.3091C26.883 10.2773 24.4956 9.84261 22.1205 10.0507C21.2951 10.1399 20.4956 10.3919 19.7684 10.7923C19.3911 11.006 19.0397 11.2625 18.7211 11.5567C18.0809 12.1506 17.5937 12.8904 17.3009 13.7131C17.025 14.5273 16.9372 15.3935 17.0443 16.2465C17.1513 17.0995 17.4504 17.9171 17.919 18.6379C18.3276 19.175 18.77 19.6857 19.2432 20.1668C19.7678 20.7349 20.2229 21.1871 20.5434 21.497C20.5434 21.497 28.2103 29.051 30.783 31.0885C31.6461 31.7589 32.7079 32.1227 33.8008 32.1227C34.8937 32.1227 35.9555 31.7589 36.8186 31.0885C39.3819 29.038 47.0594 21.497 47.0594 21.497C47.3799 21.1871 47.8344 20.7325 48.3595 20.1668C48.8328 19.6857 49.2752 19.175 49.6838 18.6379C50.1522 17.917 50.4511 17.0994 50.5582 16.2464C50.6652 15.3934 50.5776 14.5273 50.3019 13.7131" fill="#17252F"/>
</svg>
